<?xml version="1.0" encoding="utf-8"?>
<!-- Generator: Adobe Illustrator 16.0.0, SVG Export Plug-In . SVG Version: 6.00 Build 0)  -->
<!DOCTYPE svg PUBLIC "-//W3C//DTD SVG 1.1//EN" "http://www.w3.org/Graphics/SVG/1.1/DTD/svg11.dtd">
<svg version="1.1" id="Layer_1" xmlns="http://www.w3.org/2000/svg" xmlns:xlink="http://www.w3.org/1999/xlink" x="0px" y="0px"
	 width="422px" height="422px" viewBox="0 0 422 422" enable-background="new 0 0 422 422" xml:space="preserve">
<g>
	<path fill="#FFFFFF" d="M211,78.812C137.443,78.812,77.813,138.44,77.813,212c0,73.557,59.63,133.188,133.188,133.188
		c73.562,0,133.189-59.631,133.189-133.188C344.189,138.44,284.559,78.812,211,78.812z M211,333.8
		c-67.268,0-121.799-54.529-121.799-121.799c0-67.268,54.531-121.8,121.799-121.8c67.267,0,121.8,54.532,121.8,121.8
		C332.801,279.271,278.268,333.8,211,333.8z"/>
	<path fill="#FFFFFF" d="M211,4C96.125,4,3,97.125,3,212s93.125,208,208,208c114.875,0,208-93.125,208-208S325.875,4,211,4z
		 M211,356.83c-79.989,0-144.831-64.845-144.831-144.83c0-79.989,64.844-144.83,144.831-144.83c79.99,0,144.83,64.842,144.83,144.83
		C355.83,291.985,290.99,356.83,211,356.83z"/>
</g>
<g>
	<path fill="#FFFFFF" d="M237.178,135.557c30.334,0,36.625,22.014,36.625,32.926c0,49.576-72.328,56.791-72.328,80.098
		c0,15.539,6.474,38.107,6.474,39.217c0,2.223-4.255,1.666-5.549,1.666h-24.602c-4.623,0-10.173,3.514-10.173-65.855
		c0-91.381,9.618-88.053,12.764-88.053L237.178,135.557L237.178,135.557z M243.838,174.402c0-12.764-11.102-17.017-22.199-17.017
		c-13.32,0-24.233,2.034-24.048,44.579c0,4.441,0.37,8.511,5.735,8.511C212.943,210.475,243.838,187.722,243.838,174.402z"/>
</g>
</svg>
