<?xml version="1.0" encoding="utf-8"?>
<!-- Generator: Adobe Illustrator 16.0.0, SVG Export Plug-In . SVG Version: 6.00 Build 0)  -->
<!DOCTYPE svg PUBLIC "-//W3C//DTD SVG 1.1//EN" "http://www.w3.org/Graphics/SVG/1.1/DTD/svg11.dtd">
<svg version="1.1" id="Layer_1" xmlns="http://www.w3.org/2000/svg" xmlns:xlink="http://www.w3.org/1999/xlink" x="0px" y="0px"
	 width="267px" height="267px" viewBox="0 0 267 267" enable-background="new 0 0 267 267" xml:space="preserve">
<circle fill="#F79520" stroke="#000000" stroke-width="2" stroke-miterlimit="10" cx="133" cy="133" r="130"/>
<g>
</g>
<g>
	<path fill="#FFFFFF" d="M157.168,52.779c32.379,0,39.092,23.495,39.092,35.143c0,52.912-77.196,60.612-77.196,85.489
		c0,16.584,6.91,40.671,6.91,41.855c0,2.37-4.541,1.777-5.923,1.777H93.792c-4.936,0-10.859,3.751-10.859-70.286
		c0-97.532,10.267-93.979,13.623-93.979H157.168z M164.275,94.24c0-13.623-11.846-18.164-23.691-18.164
		c-14.215,0-25.864,2.171-25.667,47.581c0,4.739,0.395,9.082,6.121,9.082C131.304,132.74,164.275,108.456,164.275,94.24z"/>
</g>
</svg>
